<svg width="44" height="30" viewBox="0 0 44 30" fill="none" xmlns="http://www.w3.org/2000/svg">
<path d="M42 16.7279C43.1046 16.7279 44 15.8325 44 14.7279C44 13.6234 43.1046 12.7279 42 12.7279V14.7279V16.7279ZM0.585786 13.3137C-0.195262 14.0948 -0.195262 15.3611 0.585786 16.1421L13.3137 28.8701C14.0948 29.6511 15.3611 29.6511 16.1421 28.8701C16.9232 28.089 16.9232 26.8227 16.1421 26.0416L4.82843 14.7279L16.1421 3.41421C16.9232 2.63316 16.9232 1.36683 16.1421 0.585785C15.3611 -0.195264 14.0948 -0.195264 13.3137 0.585785L0.585786 13.3137ZM42 14.7279V12.7279L2 12.7279V14.7279V16.7279L42 16.7279V14.7279Z" fill="#033248"/>
</svg>
